<mxfile host="Electron" agent="Mozilla/5.0 (Macintosh; Intel Mac OS X 10_15_7) AppleWebKit/537.36 (KHTML, like Gecko) draw.io/24.7.17 Chrome/128.0.6613.36 Electron/32.0.1 Safari/537.36" version="24.7.17">
  <diagram name="PÃ¡gina-1" id="x00mAqeDvQochocC9hxS">
    <mxGraphModel dx="441" dy="2133" grid="1" gridSize="10" guides="1" tooltips="1" connect="1" arrows="1" fold="1" page="1" pageScale="1" pageWidth="827" pageHeight="1169" math="0" shadow="0">
      <root>
        <mxCell id="0" />
        <mxCell id="1" parent="0" />
        <mxCell id="VVMAeMm8c8ParNFLCT9j-15" value="precio" style="rounded=1;whiteSpace=wrap;html=1;fillColor=#ffe6cc;strokeColor=#d79b00;opacity=40;textOpacity=40;" vertex="1" parent="1">
          <mxGeometry x="1770" y="-65" width="70" height="30" as="geometry" />
        </mxCell>
        <mxCell id="VVMAeMm8c8ParNFLCT9j-16" value="public float getPrecio() {&lt;div&gt;&amp;nbsp; &amp;nbsp;return precio;&lt;/div&gt;&lt;div&gt;}&lt;/div&gt;" style="ellipse;whiteSpace=wrap;html=1;align=left;spacingLeft=23.622;fillColor=#ffe6cc;strokeColor=#d79b00;" vertex="1" parent="1">
          <mxGeometry x="1710" y="90" width="200" height="70" as="geometry" />
        </mxCell>
        <mxCell id="VVMAeMm8c8ParNFLCT9j-17" value="precio" style="rounded=1;whiteSpace=wrap;html=1;fillColor=#ffe6cc;strokeColor=#d79b00;" vertex="1" parent="1">
          <mxGeometry x="1850" y="-65" width="70" height="30" as="geometry" />
        </mxCell>
        <mxCell id="VVMAeMm8c8ParNFLCT9j-18" value="&lt;div style=&quot;&quot;&gt;&lt;span style=&quot;background-color: initial;&quot;&gt;public float precioConIVA() {&lt;/span&gt;&lt;/div&gt;&lt;div&gt;&amp;nbsp; &amp;nbsp;return 1.21 * getPrecio();&lt;/div&gt;&lt;div&gt;}&lt;/div&gt;" style="ellipse;whiteSpace=wrap;html=1;align=left;spacingLeft=29.5275;fillColor=#ffe6cc;strokeColor=#d79b00;" vertex="1" parent="1">
          <mxGeometry x="1680" y="210" width="210" height="90" as="geometry" />
        </mxCell>
        <mxCell id="VVMAeMm8c8ParNFLCT9j-20" style="rounded=0;orthogonalLoop=1;jettySize=auto;html=1;exitX=0;exitY=0;exitDx=0;exitDy=0;dashed=1;entryX=0.5;entryY=1;entryDx=0;entryDy=0;strokeColor=#6666FF;" edge="1" source="VVMAeMm8c8ParNFLCT9j-21" target="VVMAeMm8c8ParNFLCT9j-15" parent="1">
          <mxGeometry relative="1" as="geometry" />
        </mxCell>
        <mxCell id="VVMAeMm8c8ParNFLCT9j-21" value="" style="rounded=0;whiteSpace=wrap;html=1;fillColor=none;dashed=1;strokeColor=#6666FF;" vertex="1" parent="1">
          <mxGeometry x="1779" y="118" width="35" height="17" as="geometry" />
        </mxCell>
        <mxCell id="VVMAeMm8c8ParNFLCT9j-22" style="rounded=0;orthogonalLoop=1;jettySize=auto;html=1;exitX=0;exitY=0.25;exitDx=0;exitDy=0;dashed=1;strokeColor=#6666FF;" edge="1" source="VVMAeMm8c8ParNFLCT9j-23" parent="1">
          <mxGeometry relative="1" as="geometry">
            <mxPoint x="1733" y="114" as="targetPoint" />
          </mxGeometry>
        </mxCell>
        <mxCell id="VVMAeMm8c8ParNFLCT9j-23" value="" style="rounded=0;whiteSpace=wrap;html=1;fillColor=none;dashed=1;strokeColor=#6666FF;" vertex="1" parent="1">
          <mxGeometry x="1790" y="247" width="61" height="17" as="geometry" />
        </mxCell>
        <mxCell id="VVMAeMm8c8ParNFLCT9j-24" value="" style="curved=1;endArrow=none;html=1;rounded=0;endFill=0;strokeWidth=3.1496;fillColor=#f8cecc;strokeColor=#b85450;" edge="1" parent="1">
          <mxGeometry width="50" height="50" relative="1" as="geometry">
            <mxPoint x="1750" y="-90" as="sourcePoint" />
            <mxPoint x="1820" y="-100" as="targetPoint" />
            <Array as="points">
              <mxPoint x="1690" y="50" />
              <mxPoint x="1620" y="270" />
              <mxPoint x="1770" y="350" />
              <mxPoint x="1890" y="320" />
              <mxPoint x="1950" y="180" />
            </Array>
          </mxGeometry>
        </mxCell>
        <mxCell id="VVMAeMm8c8ParNFLCT9j-25" value="" style="curved=1;endArrow=none;html=1;rounded=0;endFill=0;strokeWidth=5.1181;fillColor=#d5e8d4;strokeColor=#82b366;" edge="1" parent="1">
          <mxGeometry width="50" height="50" relative="1" as="geometry">
            <mxPoint x="1680" y="-120" as="sourcePoint" />
            <mxPoint x="1950" y="-170" as="targetPoint" />
            <Array as="points">
              <mxPoint x="1620" y="20" />
              <mxPoint x="1550" y="240" />
              <mxPoint x="1740" y="430" />
              <mxPoint x="1970" y="400" />
              <mxPoint x="2080" y="340" />
              <mxPoint x="2160" y="120" />
              <mxPoint x="2040" y="-10" />
            </Array>
          </mxGeometry>
        </mxCell>
        <mxCell id="VVMAeMm8c8ParNFLCT9j-26" value="precio" style="rounded=1;whiteSpace=wrap;html=1;fillColor=#ffe6cc;strokeColor=#d79b00;opacity=40;textOpacity=40;" vertex="1" parent="1">
          <mxGeometry x="1080" y="-68.5" width="70" height="30" as="geometry" />
        </mxCell>
        <mxCell id="VVMAeMm8c8ParNFLCT9j-27" value="public float getPrecio() {&lt;div&gt;&amp;nbsp; &amp;nbsp;return precio;&lt;/div&gt;&lt;div&gt;}&lt;/div&gt;" style="ellipse;whiteSpace=wrap;html=1;align=left;spacingLeft=23.622;fillColor=#ffe6cc;strokeColor=#d79b00;opacity=40;textOpacity=40;" vertex="1" parent="1">
          <mxGeometry x="1020" y="86.5" width="200" height="70" as="geometry" />
        </mxCell>
        <mxCell id="VVMAeMm8c8ParNFLCT9j-28" value="precio" style="rounded=1;whiteSpace=wrap;html=1;fillColor=#ffe6cc;strokeColor=#d79b00;" vertex="1" parent="1">
          <mxGeometry x="1160" y="-68.5" width="70" height="30" as="geometry" />
        </mxCell>
        <mxCell id="VVMAeMm8c8ParNFLCT9j-29" value="&lt;div style=&quot;&quot;&gt;&lt;span style=&quot;background-color: initial;&quot;&gt;public float precioConIVA() {&lt;/span&gt;&lt;/div&gt;&lt;div&gt;&amp;nbsp; &amp;nbsp;return 1.21 * getPrecio();&lt;/div&gt;&lt;div&gt;}&lt;/div&gt;" style="ellipse;whiteSpace=wrap;html=1;align=left;spacingLeft=29.5275;fillColor=#ffe6cc;strokeColor=#d79b00;" vertex="1" parent="1">
          <mxGeometry x="990" y="206.5" width="210" height="90" as="geometry" />
        </mxCell>
        <mxCell id="VVMAeMm8c8ParNFLCT9j-30" style="rounded=0;orthogonalLoop=1;jettySize=auto;html=1;exitX=0;exitY=0;exitDx=0;exitDy=0;dashed=1;entryX=0.5;entryY=1;entryDx=0;entryDy=0;strokeColor=#6666FF;" edge="1" source="VVMAeMm8c8ParNFLCT9j-31" target="VVMAeMm8c8ParNFLCT9j-28" parent="1">
          <mxGeometry relative="1" as="geometry" />
        </mxCell>
        <mxCell id="VVMAeMm8c8ParNFLCT9j-31" value="" style="rounded=0;whiteSpace=wrap;html=1;fillColor=none;dashed=1;strokeColor=#6666FF;" vertex="1" parent="1">
          <mxGeometry x="1280" y="106.5" width="35" height="17" as="geometry" />
        </mxCell>
        <mxCell id="VVMAeMm8c8ParNFLCT9j-33" value="" style="rounded=0;whiteSpace=wrap;html=1;fillColor=none;dashed=1;strokeColor=#6666FF;" vertex="1" parent="1">
          <mxGeometry x="1100" y="243.5" width="61" height="17" as="geometry" />
        </mxCell>
        <mxCell id="VVMAeMm8c8ParNFLCT9j-34" value="" style="curved=1;endArrow=none;html=1;rounded=0;endFill=0;strokeWidth=3.1496;fillColor=#f8cecc;strokeColor=#b85450;" edge="1" parent="1">
          <mxGeometry width="50" height="50" relative="1" as="geometry">
            <mxPoint x="1060" y="-93.5" as="sourcePoint" />
            <mxPoint x="1130" y="-103.5" as="targetPoint" />
            <Array as="points">
              <mxPoint x="1000" y="46.5" />
              <mxPoint x="930" y="266.5" />
              <mxPoint x="1080" y="346.5" />
              <mxPoint x="1200" y="316.5" />
              <mxPoint x="1260" y="176.5" />
            </Array>
          </mxGeometry>
        </mxCell>
        <mxCell id="VVMAeMm8c8ParNFLCT9j-35" value="" style="curved=1;endArrow=none;html=1;rounded=0;endFill=0;strokeWidth=5.1181;fillColor=#d5e8d4;strokeColor=#82b366;" edge="1" parent="1">
          <mxGeometry width="50" height="50" relative="1" as="geometry">
            <mxPoint x="990" y="-123.5" as="sourcePoint" />
            <mxPoint x="1260" y="-173.5" as="targetPoint" />
            <Array as="points">
              <mxPoint x="930" y="16.5" />
              <mxPoint x="860" y="236.5" />
              <mxPoint x="1050" y="426.5" />
              <mxPoint x="1280" y="396.5" />
              <mxPoint x="1390" y="336.5" />
              <mxPoint x="1470" y="116.5" />
              <mxPoint x="1350" y="-13.5" />
            </Array>
          </mxGeometry>
        </mxCell>
        <mxCell id="VVMAeMm8c8ParNFLCT9j-36" value="public float getPrecio() {&lt;div&gt;&amp;nbsp; &amp;nbsp;return precio;&lt;/div&gt;&lt;div&gt;}&lt;/div&gt;" style="ellipse;whiteSpace=wrap;html=1;align=left;spacingLeft=23.622;fillColor=#ffe6cc;strokeColor=#d79b00;" vertex="1" parent="1">
          <mxGeometry x="1210" y="80" width="200" height="70" as="geometry" />
        </mxCell>
        <mxCell id="VVMAeMm8c8ParNFLCT9j-32" style="rounded=0;orthogonalLoop=1;jettySize=auto;html=1;exitX=0;exitY=0.25;exitDx=0;exitDy=0;dashed=1;strokeColor=#6666FF;" edge="1" source="VVMAeMm8c8ParNFLCT9j-33" parent="1">
          <mxGeometry relative="1" as="geometry">
            <mxPoint x="1231" y="107" as="targetPoint" />
          </mxGeometry>
        </mxCell>
        <mxCell id="VVMAeMm8c8ParNFLCT9j-39" value="&lt;b style=&quot;font-size: 18px;&quot;&gt;Deposito&lt;/b&gt;" style="text;html=1;align=center;verticalAlign=middle;whiteSpace=wrap;rounded=0;fontSize=18;" vertex="1" parent="1">
          <mxGeometry x="980" y="170" width="60" height="30" as="geometry" />
        </mxCell>
        <mxCell id="VVMAeMm8c8ParNFLCT9j-40" value="DepositoConArmazon" style="text;html=1;align=center;verticalAlign=middle;whiteSpace=wrap;rounded=0;fontStyle=1;fontSize=18;" vertex="1" parent="1">
          <mxGeometry x="1190" y="330" width="130" height="30" as="geometry" />
        </mxCell>
        <mxCell id="VVMAeMm8c8ParNFLCT9j-41" value="&lt;b style=&quot;font-size: 29px;&quot;&gt;...&lt;/b&gt;" style="text;html=1;align=center;verticalAlign=middle;whiteSpace=wrap;rounded=0;fontSize=29;" vertex="1" parent="1">
          <mxGeometry x="1700" y="30" width="60" height="30" as="geometry" />
        </mxCell>
        <mxCell id="VVMAeMm8c8ParNFLCT9j-42" value="&lt;b style=&quot;font-size: 29px;&quot;&gt;...&lt;/b&gt;" style="text;html=1;align=center;verticalAlign=middle;whiteSpace=wrap;rounded=0;fontSize=29;" vertex="1" parent="1">
          <mxGeometry x="1010" y="30" width="60" height="30" as="geometry" />
        </mxCell>
        <mxCell id="VVMAeMm8c8ParNFLCT9j-43" value="&lt;b style=&quot;font-size: 29px;&quot;&gt;...&lt;/b&gt;" style="text;html=1;align=center;verticalAlign=middle;whiteSpace=wrap;rounded=0;fontSize=29;" vertex="1" parent="1">
          <mxGeometry x="1990" y="260.5" width="60" height="30" as="geometry" />
        </mxCell>
        <mxCell id="VVMAeMm8c8ParNFLCT9j-44" value="&lt;b style=&quot;font-size: 29px;&quot;&gt;...&lt;/b&gt;" style="text;html=1;align=center;verticalAlign=middle;whiteSpace=wrap;rounded=0;fontSize=29;" vertex="1" parent="1">
          <mxGeometry x="1310" y="264" width="60" height="30" as="geometry" />
        </mxCell>
        <mxCell id="VVMAeMm8c8ParNFLCT9j-45" value="&lt;font face=&quot;Courier New&quot; style=&quot;font-size: 19px;&quot;&gt;depositoConArmazon.precioConIVA()&lt;/font&gt;" style="text;html=1;align=center;verticalAlign=middle;whiteSpace=wrap;rounded=0;fontStyle=1;fontSize=19;" vertex="1" parent="1">
          <mxGeometry x="1650" y="470" width="320" height="30" as="geometry" />
        </mxCell>
        <mxCell id="VVMAeMm8c8ParNFLCT9j-46" value="&lt;font face=&quot;Courier New&quot; style=&quot;font-size: 19px;&quot;&gt;depositoConArmazon.precioConIVA()&lt;/font&gt;" style="text;html=1;align=center;verticalAlign=middle;whiteSpace=wrap;rounded=0;fontStyle=1;fontSize=19;" vertex="1" parent="1">
          <mxGeometry x="995" y="470" width="320" height="30" as="geometry" />
        </mxCell>
        <mxCell id="VVMAeMm8c8ParNFLCT9j-47" value="&lt;b style=&quot;font-size: 18px;&quot;&gt;Deposito&lt;/b&gt;" style="text;html=1;align=center;verticalAlign=middle;whiteSpace=wrap;rounded=0;fontSize=18;" vertex="1" parent="1">
          <mxGeometry x="1670" y="170" width="60" height="30" as="geometry" />
        </mxCell>
        <mxCell id="VVMAeMm8c8ParNFLCT9j-48" value="DepositoConArmazon&#39;" style="text;html=1;align=center;verticalAlign=middle;whiteSpace=wrap;rounded=0;fontStyle=1;fontSize=18;" vertex="1" parent="1">
          <mxGeometry x="1880" y="330" width="130" height="30" as="geometry" />
        </mxCell>
      </root>
    </mxGraphModel>
  </diagram>
</mxfile>
